M48
; DRILL file {KiCad (5.1.6)-1} date 08/29/24 21:28:20
; FORMAT={-:-/ absolute / inch / decimal}
; #@! TF.CreationDate,2024-08-29T21:28:20+03:00
; #@! TF.GenerationSoftware,Kicad,Pcbnew,(5.1.6)-1
; #@! TF.FileFunction,Plated,1,2,PTH
FMAT,2
INCH
T1C0.0197
T2C0.0315
T3C0.0394
T4C0.0472
%
G90
G05
T1
X8.585Y-4.06
X8.585Y-4.1348
T2
X8.5825Y-3.5479
X8.5825Y-3.74
X7.215Y-3.6575
X7.215Y-3.7362
X7.215Y-3.815
X7.2937Y-3.6575
X7.2937Y-3.7362
X7.2937Y-3.815
T3
X7.17Y-4.4325
X7.27Y-4.4325
X7.37Y-4.4325
X7.47Y-4.4325
X7.57Y-4.4325
X7.67Y-4.4325
X7.77Y-4.4325
X7.87Y-4.4325
X7.97Y-4.4325
X8.07Y-4.4325
X8.17Y-4.4325
X8.27Y-4.4325
X8.37Y-4.4325
X8.47Y-4.4325
X8.57Y-4.4325
X8.67Y-4.4325
X8.77Y-4.4325
X8.87Y-4.4325
X8.97Y-4.4325
X9.07Y-4.4325
X7.0425Y-3.6125
X7.0425Y-3.7125
X7.0425Y-3.8125
X7.0425Y-3.9125
X7.17Y-3.1525
X7.27Y-3.1525
X7.37Y-3.1525
X7.47Y-3.1525
X7.57Y-3.1525
X7.67Y-3.1525
X7.77Y-3.1525
X7.87Y-3.1525
X7.97Y-3.1525
X8.07Y-3.1525
X8.17Y-3.1525
X8.27Y-3.1525
X8.37Y-3.1525
X8.47Y-3.1525
X8.57Y-3.1525
X8.67Y-3.1525
X8.77Y-3.1525
X8.87Y-3.1525
X8.97Y-3.1525
X9.07Y-3.1525
T4
X8.74Y-4.115
T0
M30
